<?xml version="1.0" encoding="UTF-8" standalone="no"?>
<svg
   xmlns:dc="http://purl.org/dc/elements/1.1/"
   xmlns:cc="http://creativecommons.org/ns#"
   xmlns:rdf="http://www.w3.org/1999/02/22-rdf-syntax-ns#"
   xmlns:svg="http://www.w3.org/2000/svg"
   xmlns="http://www.w3.org/2000/svg"
   xmlns:sodipodi="http://sodipodi.sourceforge.net/DTD/sodipodi-0.dtd"
   xmlns:inkscape="http://www.inkscape.org/namespaces/inkscape"
   sodipodi:docname="Dlogo.svg"
   inkscape:version="1.0 (4035a4fb49, 2020-05-01)"
   id="svg1052"
   version="1.1"
   viewBox="0 0 500 200"
   height="200mm"
   width="500mm">
  <defs
     id="defs1046">
    <rect
       x="511.21704"
       y="3.489536"
       width="1176.8459"
       height="513.83417"
       id="rect874" />
    <rect
       x="511.21704"
       y="3.489536"
       width="1176.8459"
       height="513.83417"
       id="rect998" />
    <rect
       x="-141.3262"
       y="-66.301186"
       width="1228.3167"
       height="1076.5219"
       id="rect896" />
    <rect
       x="-141.3262"
       y="-66.301186"
       width="1228.3167"
       height="1076.5219"
       id="rect1001" />
    <rect
       x="554.83624"
       y="113.40992"
       width="1572.036"
       height="251.2466"
       id="rect902" />
    <rect
       x="554.83624"
       y="113.40992"
       width="1572.036"
       height="251.2466"
       id="rect1004" />
    <rect
       id="rect910"
       height="251.2466"
       width="1572.036"
       y="113.40992"
       x="554.83624" />
    <rect
       id="rect1007"
       height="251.2466"
       width="1572.036"
       y="113.40992"
       x="554.83624" />
  </defs>
  <sodipodi:namedview
     inkscape:window-maximized="0"
     inkscape:window-y="0"
     inkscape:window-x="64"
     inkscape:window-height="1030"
     inkscape:window-width="1424"
     width="298mm"
     units="mm"
     showgrid="false"
     inkscape:document-rotation="0"
     inkscape:current-layer="layer1"
     inkscape:document-units="px"
     inkscape:cy="560"
     inkscape:cx="1302.1242"
     inkscape:zoom="0.35"
     inkscape:pageshadow="2"
     inkscape:pageopacity="0.0"
     borderopacity="1.0"
     bordercolor="#666666"
     pagecolor="#ffffff"
     id="base" />
  <metadata
     id="metadata1049">
    <rdf:RDF>
      <cc:Work
         rdf:about="">
        <dc:format>image/svg+xml</dc:format>
        <dc:type
           rdf:resource="http://purl.org/dc/dcmitype/StillImage" />
        <dc:title></dc:title>
      </cc:Work>
    </rdf:RDF>
  </metadata>
  <g
     id="layer1"
     inkscape:groupmode="layer"
     inkscape:label="Layer 1">
    <g
       id="g987"
       inkscape:export-xdpi="96"
       inkscape:export-ydpi="96"
       transform="matrix(0.11575612,0,0,0.11575612,-62.60817,55.474196)">
      <g
         id="g12" />
      <g
         id="g14" />
      <g
         id="g16" />
      <g
         id="g18" />
      <g
         id="g20" />
      <g
         id="g22" />
      <g
         id="g24" />
      <g
         id="g26" />
      <g
         id="g28" />
      <g
         id="g30" />
      <g
         id="g32" />
      <g
         id="g34" />
      <g
         id="g36" />
      <g
         id="g38" />
      <g
         id="g40" />
      <text
         style="font-style:normal;font-weight:normal;font-size:40px;line-height:1.25;font-family:sans-serif;white-space:pre;shape-inside:url(#rect874);fill:#000000;fill-opacity:1;stroke:none;"
         id="text872"
         xml:space="preserve" />
      <text
         style="font-style:normal;font-weight:normal;font-size:40px;line-height:1.25;font-family:sans-serif;white-space:pre;shape-inside:url(#rect896);fill:#000000;fill-opacity:1;stroke:none;"
         id="text894"
         xml:space="preserve" />
      <g
         transform="matrix(2.7798589,0,0,2.7798589,-578.53012,-377.56027)"
         id="g921">
        <g
           id="g914">
          <text
             style="font-style:normal;font-weight:normal;font-size:192px;line-height:1.25;font-family:sans-serif;white-space:pre;shape-inside:url(#rect902);fill:#f4b2b0;fill-opacity:1;stroke:none;"
             id="text900"
             xml:space="preserve"><tspan
               x="554.83594"
               y="291.01016"><tspan
                 style="font-style:normal;font-variant:normal;font-weight:bold;font-stretch:normal;font-size:192px;font-family:Anurati;-inkscape-font-specification:'Anurati Bold';fill:#f4b2b0;fill-opacity:1">D</tspan><tspan
                 style="font-style:normal;font-variant:normal;font-weight:bold;font-stretch:normal;font-size:192px;font-family:Anurati;-inkscape-font-specification:'Anurati Bold';fill:#f4b2b0;fill-opacity:1">ownload</tspan><tspan
                 style="font-style:normal;font-variant:normal;font-weight:bold;font-stretch:normal;font-size:192px;font-family:Anurati;-inkscape-font-specification:'Anurati Bold';fill:#f4b2b0;fill-opacity:1">M</tspan><tspan
                 style="font-style:normal;font-variant:normal;font-weight:bold;font-stretch:normal;font-size:192px;font-family:Anurati;-inkscape-font-specification:'Anurati Bold';fill:#f4b2b0;fill-opacity:1">e</tspan></tspan></text>
        </g>
        <text
           style="font-style:normal;font-weight:normal;font-size:192px;line-height:1.25;font-family:sans-serif;white-space:pre;shape-inside:url(#rect910);fill:#b3404a;fill-opacity:1;stroke:none;"
           id="text908"
           xml:space="preserve"
           transform="translate(8.72384,8.7238451)"><tspan
             x="554.83594"
             y="291.01016"><tspan
               style="font-style:normal;font-variant:normal;font-weight:bold;font-stretch:normal;font-size:192px;font-family:Anurati;-inkscape-font-specification:'Anurati Bold';fill:#b3404a;fill-opacity:1">D</tspan><tspan
               style="font-style:normal;font-variant:normal;font-weight:bold;font-stretch:normal;font-size:192px;font-family:Anurati;-inkscape-font-specification:'Anurati Bold';fill:#b3404a;fill-opacity:1">ownload</tspan><tspan
               style="font-style:normal;font-variant:normal;font-weight:bold;font-stretch:normal;font-size:192px;font-family:Anurati;-inkscape-font-specification:'Anurati Bold';fill:#b3404a;fill-opacity:1">M</tspan><tspan
               style="font-style:normal;font-variant:normal;font-weight:bold;font-stretch:normal;font-size:192px;font-family:Anurati;-inkscape-font-specification:'Anurati Bold';fill:#b3404a;fill-opacity:1">e</tspan></tspan></text>
      </g>
      <g
         transform="translate(-94.217473,-642.07463)"
         id="g949">
        <g
           id="g927"
           transform="translate(32.812,72.793)">
          <path
             id="path2"
             d="m 1052.1987,754.85834 c -9.061,0 -16.407,-7.345 -16.407,-16.407 v -91.04 c 0,-9.061 7.345,-16.407 16.407,-16.407 9.062,0 16.407,7.345 16.407,16.407 v 91.04 c -10e-4,9.062 -7.346,16.407 -16.407,16.407 z"
             style="fill:#b3404a" />
          <g
             transform="translate(697.9072,628.11648)"
             id="g10">
            <path
               id="path6"
               d="m 509.491,218.229 c -5.055,-12.136 -16.817,-19.98 -29.965,-19.98 h -117.45 c -4.43,0 -8.669,1.79 -11.759,4.965 L 256,300.146 170.628,212.407 V 33.253 c 0,-9.061 -7.345,-16.407 -16.407,-16.407 -9.062,0 -16.407,7.345 -16.407,16.407 V 198.25 H 32.475 c -13.148,0 -24.91,7.842 -29.965,19.98 -5.055,12.138 -2.338,26.011 6.924,35.345 l 234.922,236.731 c 3.08,3.104 7.273,4.85 11.645,4.85 4.372,0 8.566,-1.746 11.645,-4.85 L 502.568,253.575 c 9.261,-9.335 11.979,-23.208 6.923,-35.346 z M 256.002,455.454 33.33,231.063 h 109.668 l 101.245,104.051 c 3.088,3.175 7.329,4.965 11.759,4.965 4.43,0 8.671,-1.79 11.759,-4.965 l 101.244,-104.051 109.67,0.003 z"
               style="fill:#b3404a" />
            <path
               id="path8"
               d="m 256.002,241.51 c -9.061,0 -16.407,-7.345 -16.407,-16.407 V 68.822 c 0,-9.061 7.345,-16.407 16.407,-16.407 9.062,0 16.407,7.345 16.407,16.407 v 156.281 c 0,9.062 -7.346,16.407 -16.407,16.407 z"
               style="fill:#b3404a" />
          </g>
        </g>
        <g
           id="g937"
           transform="translate(5.182,91.449)"
           style="opacity:0.670927">
          <path
             style="fill:#b3404a"
             d="m 1052.1987,754.85834 c -9.061,0 -16.407,-7.345 -16.407,-16.407 v -91.04 c 0,-9.061 7.345,-16.407 16.407,-16.407 9.062,0 16.407,7.345 16.407,16.407 v 91.04 c -10e-4,9.062 -7.346,16.407 -16.407,16.407 z"
             id="path929" />
          <g
             id="g935"
             transform="translate(697.9072,628.11648)">
            <path
               style="fill:#b3404a"
               d="m 509.491,218.229 c -5.055,-12.136 -16.817,-19.98 -29.965,-19.98 h -117.45 c -4.43,0 -8.669,1.79 -11.759,4.965 L 256,300.146 170.628,212.407 V 33.253 c 0,-9.061 -7.345,-16.407 -16.407,-16.407 -9.062,0 -16.407,7.345 -16.407,16.407 V 198.25 H 32.475 c -13.148,0 -24.91,7.842 -29.965,19.98 -5.055,12.138 -2.338,26.011 6.924,35.345 l 234.922,236.731 c 3.08,3.104 7.273,4.85 11.645,4.85 4.372,0 8.566,-1.746 11.645,-4.85 L 502.568,253.575 c 9.261,-9.335 11.979,-23.208 6.923,-35.346 z M 256.002,455.454 33.33,231.063 h 109.668 l 101.245,104.051 c 3.088,3.175 7.329,4.965 11.759,4.965 4.43,0 8.671,-1.79 11.759,-4.965 l 101.244,-104.051 109.67,0.003 z"
               id="path931" />
            <path
               style="fill:#b3404a"
               d="m 256.002,241.51 c -9.061,0 -16.407,-7.345 -16.407,-16.407 V 68.822 c 0,-9.061 7.345,-16.407 16.407,-16.407 9.062,0 16.407,7.345 16.407,16.407 v 156.281 c 0,9.062 -7.346,16.407 -16.407,16.407 z"
               id="path933" />
          </g>
        </g>
      </g>
    </g>
  </g>
</svg>
