<?xml version="1.0" encoding="iso-8859-1"?>
<!-- Generator: Adobe Illustrator 19.0.0, SVG Export Plug-In . SVG Version: 6.00 Build 0)  -->
<svg version="1.1" id="Layer_1" xmlns="http://www.w3.org/2000/svg" xmlns:xlink="http://www.w3.org/1999/xlink" x="0px" y="0px"
	 viewBox="0 0 392.533 392.533" style="enable-background:new 0 0 392.533 392.533;" xml:space="preserve">
<g>
	<path style="fill:#FFFFFF;" d="M21.689,133.947c-1.034,18.36,15.386,34.521,34.392,34.586l279.855,0.905
		c19.006,0.065,34.586-15.386,34.586-34.392c0.065-19.006-15.386-34.521-34.392-34.651c-3.556,0-7.111,0.517-10.537,1.616
		c-5.172,1.616-10.602-0.84-13.123-5.689c-16.356-31.677-46.61-28.962-46.998-28.962c0,0-7.176,1.228-11.119-5.301
		c-8.339-13.834-22.562-22.174-38.659-22.238c-12.735-0.065-25.018,4.719-33.164,14.545c-2.715,3.232-12.218,7.24-17.907-2.909
		c-9.826-17.39-26.376-29.996-46.287-30.061C90.214,21.333,67.265,44.024,67.2,72.145c0,4.461,1.034,8.986,1.875,13.705
		C71.725,99.943,57.05,99.556,57.05,99.556C55.046,100.137,23.434,101.366,21.689,133.947z"/>
	<rect x="35.2" y="236.154" style="fill:#FFFFFF;" width="83.911" height="134.529"/>
</g>
<rect x="273.487" y="236.154" style="fill:#FFC10D;" width="83.911" height="134.529"/>
<path style="fill:#56ACE0;" d="M56.339,147.2c-7.046,0-12.735-5.689-12.735-12.671c0-6.853,5.495-12.412,12.283-12.671l1.099,0.065
	c22.303,1.164,39.176-19.911,33.164-41.374v-0.065c-0.776-2.651-1.099-5.236-1.099-7.822c0-16.097,13.059-29.156,29.22-29.156
	c11.378,0,21.786,6.723,26.505,17.067l0,0c9.697,21.333,38.012,25.794,53.85,8.533l0,0c4.461-4.848,10.537-7.564,17.067-7.564
	c8.275,0,15.709,4.267,19.911,11.442l0,0c6.141,10.408,17.584,16.549,29.673,15.968l0,0l1.681-0.065h-0.323
	c11.313,0,21.333,6.335,26.246,16.549l0,0c7.111,14.675,23.855,21.851,39.37,16.873l0,0c1.293-0.388,2.521-0.646,3.879-0.646
	c7.434,0,13.446,6.465,12.671,13.964c-0.646,6.529-6.335,11.378-12.929,11.378H56.339V147.2z"/>
<g>
	<path style="fill:#194F82;" d="M129.972,214.368H24.275c-6.012,0-10.925,4.848-10.925,10.925v156.315
		c0,6.012,4.848,10.925,10.925,10.925h105.697c6.012,0,10.925-4.848,10.925-10.925v-156.38
		C140.897,219.216,136.048,214.368,129.972,214.368z M119.111,370.683H35.2V236.154h83.911V370.683z"/>
	<path style="fill:#194F82;" d="M368.323,214.368H262.626c-6.012,0-10.925,4.848-10.925,10.925v156.315
		c0,6.012,4.848,10.925,10.925,10.925h105.697c6.012,0,10.925-4.848,10.925-10.925v-156.38
		C379.184,219.216,374.335,214.368,368.323,214.368z M357.398,370.683h-83.911V236.154h83.911V370.683z"/>
	<path style="fill:#194F82;" d="M56.339,190.772h279.855c31.095,0,56.307-25.277,56.307-56.307
		c0-31.095-25.277-56.307-56.307-56.307c-2.78,0-5.56,0.259-8.275,0.646c-12.8-20.105-34.327-32.517-58.311-33.487
		c-12.541-17.067-32.582-27.41-53.851-27.41c-13.834,0-27.281,4.331-38.4,12.218C163.782,11.507,141.802,0,118.271,0
		C78.19,0,45.479,32.582,45.479,72.727c0,2.133,0.065,4.331,0.323,6.594c-26.053,4.978-45.77,27.927-45.77,55.273
		C0.032,165.495,25.309,190.772,56.339,190.772z M21.818,134.529c1.616-32.517,33.228-33.939,35.297-34.457
		c0.065,0,14.675,0.323,12.024-13.77c-0.84-4.655-1.939-9.18-1.939-13.576c0-28.057,22.885-50.941,51.006-50.941
		c19.846,0,36.525,12.541,46.352,29.931c5.818,10.149,15.321,6.012,17.907,2.844c8.145-9.891,20.428-14.675,33.164-14.675
		c15.968,0,30.319,8.339,38.723,22.109c4.008,6.594,11.119,5.236,11.119,5.236c0.388,0,30.578-2.844,47.063,28.832
		c2.457,4.784,7.952,7.37,13.123,5.624c3.426-1.099,6.982-1.616,10.537-1.616c19.006,0,34.521,15.451,34.521,34.457
		s-15.515,34.457-34.521,34.457H56.339C37.333,168.986,20.913,152.954,21.818,134.529z"/>
	<path style="fill:#194F82;" d="M206.061,211.653c-1.875-3.685-5.624-5.947-9.762-5.947c-4.073,0-7.887,2.327-9.762,5.947
		l-36.461,72.081c-2.715,5.43-0.517,11.895,4.784,14.675c6.077,3.103,12.671-0.388,14.675-4.784l26.764-52.816l26.764,52.881
		c2.715,5.301,9.244,7.499,14.675,4.784c5.43-2.715,7.499-9.244,4.784-14.675L206.061,211.653z"/>
	<path style="fill:#194F82;" d="M303.095,282.053h24.824c6.012,0,10.925-4.848,10.925-10.925c0-6.012-4.848-10.925-10.925-10.925
		h-24.824c-6.012,0-10.925,4.848-10.925,10.925C292.17,277.204,297.083,282.053,303.095,282.053z"/>
	<path style="fill:#194F82;" d="M64.679,282.053h24.824c6.012,0,10.925-4.848,10.925-10.925c0-6.012-4.848-10.925-10.925-10.925
		H64.679c-6.012,0-10.925,4.848-10.925,10.925C53.818,277.204,58.731,282.053,64.679,282.053z"/>
	<path style="fill:#194F82;" d="M315.442,314.182c-6.012,0-10.925,4.848-10.925,10.925v13.834c0,6.012,4.848,10.925,10.925,10.925
		c6.012,0,10.925-4.849,10.925-10.925v-13.834C326.368,319.095,321.455,314.182,315.442,314.182z"/>
	<path style="fill:#194F82;" d="M77.156,314.182c-6.012,0-10.925,4.848-10.925,10.925v13.834c0,6.012,4.848,10.925,10.925,10.925
		c6.077,0,10.925-4.849,10.925-10.925v-13.834C88.016,319.095,83.168,314.182,77.156,314.182z"/>
</g>
<g>
</g>
<g>
</g>
<g>
</g>
<g>
</g>
<g>
</g>
<g>
</g>
<g>
</g>
<g>
</g>
<g>
</g>
<g>
</g>
<g>
</g>
<g>
</g>
<g>
</g>
<g>
</g>
<g>
</g>
</svg>
