<?xml version="1.0" standalone="no"?>
<!DOCTYPE svg PUBLIC "-//W3C//DTD SVG 20010904//EN"
 "http://www.w3.org/TR/2001/REC-SVG-20010904/DTD/svg10.dtd">
<svg version="1.0" xmlns="http://www.w3.org/2000/svg"
 width="600.000000pt" height="600.000000pt" viewBox="0 0 600.000000 600.000000"
 preserveAspectRatio="xMidYMid meet">
<metadata>
Created by potrace 1.16, written by Peter Selinger 2001-2019
</metadata>
<g transform="translate(0.000000,600.000000) scale(0.100000,-0.100000)"
fill="#000000" stroke="none">
<path d="M3025 5983 c-4 -10 -10 -73 -13 -140 l-4 -123 -29 21 c-32 22 -72 94
-84 147 -9 44 -24 37 -58 -29 -36 -72 -49 -142 -49 -278 l0 -113 -46 7 c-125
19 -238 108 -304 241 -23 47 -45 81 -49 77 -18 -18 -70 -160 -80 -221 -11 -62
-7 -180 7 -229 6 -22 4 -23 -57 -23 -190 -1 -383 -95 -479 -236 -17 -23 -30
-45 -30 -47 0 -2 18 0 39 6 30 8 59 7 127 -7 49 -9 93 -21 97 -25 4 -4 -18
-13 -50 -20 -182 -40 -330 -176 -399 -367 -25 -66 -24 -68 26 -34 32 23 151
73 157 67 9 -9 -25 -62 -64 -99 -42 -41 -129 -85 -185 -94 -70 -12 -37 -43 53
-51 l62 -6 -39 -21 c-30 -15 -64 -21 -142 -24 l-103 -4 7 -32 c26 -120 131
-231 255 -269 13 -4 3 -19 -41 -64 -53 -55 -75 -95 -104 -190 l-7 -22 44 24
c44 25 157 68 157 60 0 -3 -15 -24 -33 -48 -70 -92 -102 -216 -77 -305 l11
-44 22 43 c27 54 42 59 43 15 0 -18 9 -55 19 -81 l18 -48 15 29 c22 44 42 64
106 106 64 41 76 39 76 -14 0 -20 4 -26 15 -22 20 8 19 -1 -5 -79 -12 -38 -33
-79 -50 -97 -16 -18 -27 -37 -24 -42 7 -11 100 -6 142 7 20 7 22 4 22 -32 0
-27 -9 -53 -26 -78 l-25 -38 50 7 c55 7 57 5 51 -61 -2 -31 18 -29 60 6 l34
29 -47 51 c-55 58 -82 113 -93 185 -5 39 -4 47 7 42 8 -3 21 -9 31 -12 9 -3
21 -24 26 -45 15 -59 52 -107 95 -124 77 -31 102 20 42 86 -27 30 -35 48 -35
77 0 21 3 42 6 45 4 3 26 -5 49 -18 23 -14 45 -25 48 -25 3 0 0 19 -8 41 -28
79 -14 219 21 219 7 0 30 -18 50 -40 21 -22 40 -40 43 -40 3 0 7 56 8 124 2
191 34 333 96 423 26 39 33 40 64 11 l23 -21 0 44 c0 24 3 54 6 67 6 21 8 19
26 -20 20 -45 45 -78 60 -78 4 0 8 14 8 32 0 39 29 100 71 151 29 35 32 37 45
20 12 -16 13 -16 14 -1 0 30 19 29 35 -2 16 -31 35 -40 35 -17 0 18 38 88 64
115 27 31 88 62 121 62 14 0 25 -2 25 -5 0 -18 -56 -89 -100 -127 -31 -28 -48
-48 -41 -52 6 -4 42 -10 81 -13 38 -3 70 -10 70 -14 0 -5 -14 -19 -31 -31
l-31 -23 39 -7 c57 -10 173 -9 214 2 20 6 68 33 105 60 38 28 70 47 71 43 11
-50 46 -154 50 -149 3 3 16 -16 28 -42 12 -26 32 -55 43 -66 24 -21 27 -18 36
48 6 47 14 57 28 32 6 -10 23 -32 39 -50 l28 -31 1 25 c0 15 31 -44 74 -140
40 -91 87 -192 104 -226 l31 -60 -33 -72 c-36 -79 -57 -107 -97 -128 -26 -13
-26 -16 -17 -56 5 -24 8 -95 5 -158 -3 -94 -10 -131 -34 -203 -52 -149 -138
-266 -266 -362 -77 -58 -257 -147 -358 -176 l-75 -22 -130 59 c-175 79 -252
126 -341 208 -64 60 -195 218 -206 251 -10 26 -483 -263 -553 -337 -35 -37
-71 -135 -80 -219 -6 -50 -11 -59 -74 -124 l-68 -70 -26 -117 c-14 -64 -35
-138 -46 -164 -18 -38 -21 -62 -19 -132 l3 -85 -79 -54 c-138 -94 -279 -200
-311 -235 -26 -27 -48 -84 -127 -323 -104 -316 -118 -364 -141 -471 -8 -39
-31 -107 -51 -150 -21 -44 -55 -124 -77 -179 -86 -213 -103 -286 -76 -313 9
-9 222 -12 898 -12 l887 0 6 243 c10 394 52 680 138 942 41 122 62 268 56 385
-5 115 -25 161 -91 208 -35 25 -48 42 -56 75 -6 23 -16 59 -22 79 -10 35 -8
41 47 135 32 54 70 111 84 126 25 27 26 35 31 160 l5 132 45 -42 c25 -23 64
-72 85 -110 113 -195 321 -299 495 -248 119 35 131 37 137 31 13 -12 -152
-423 -209 -518 -30 -52 -23 -65 12 -20 17 22 33 28 78 33 31 4 82 10 112 14
l55 7 1 -193 c0 -143 5 -212 17 -264 11 -49 19 -158 26 -355 14 -393 32 -584
72 -768 l11 -52 914 0 c674 0 914 3 914 11 0 7 -10 27 -21 46 -16 26 -26 72
-40 181 -34 273 -94 612 -136 762 -75 271 -120 376 -189 441 -52 48 -155 119
-269 187 l-71 42 -38 222 c-22 134 -46 241 -59 267 -11 25 -46 70 -76 100 -91
91 -101 110 -101 184 0 35 -3 99 -7 141 -6 74 -8 80 -50 127 -55 60 -178 142
-332 221 -64 33 -116 64 -115 69 1 5 2 13 3 19 0 5 27 7 66 3 45 -4 73 -2 89
7 20 10 28 10 47 -4 15 -10 44 -16 76 -16 50 0 52 1 44 23 -4 12 -11 43 -15
70 -6 41 -5 47 10 47 10 0 28 -9 40 -21 21 -20 23 -20 32 -2 6 10 12 43 14 73
l3 55 46 6 c26 4 59 15 73 24 l27 18 -29 17 c-28 17 -72 66 -72 80 0 4 24 5
54 2 l55 -4 -19 38 c-11 22 -22 62 -26 90 -6 49 -5 52 20 58 47 12 111 -12
171 -65 l35 -31 0 30 c0 26 -24 115 -44 163 -5 12 2 18 31 27 79 24 255 142
212 142 -33 0 -91 23 -119 47 -17 14 -53 61 -81 103 -27 43 -56 84 -64 90 -41
34 16 41 84 10 24 -11 44 -20 46 -20 1 0 -2 21 -7 48 -15 70 -70 179 -129 251
-30 38 -47 67 -40 69 39 13 136 91 180 145 41 50 141 217 129 217 -2 0 -25 -7
-52 -15 -59 -18 -111 -19 -171 -4 -63 16 -71 31 -35 58 16 12 39 40 51 62 21
42 20 60 -4 41 -7 -6 -32 -14 -55 -18 -62 -10 -136 30 -208 112 -31 35 -83 81
-115 101 -33 20 -59 41 -59 48 0 19 61 75 88 82 13 3 60 3 104 -1 l80 -7 -28
24 c-94 76 -195 110 -329 110 -55 0 -112 -6 -127 -12 l-28 -11 0 45 c0 121
-58 260 -147 352 -55 56 -169 140 -179 130 -3 -2 5 -25 16 -52 41 -96 47 -261
12 -355 -9 -24 -9 -23 -21 13 -34 103 -155 214 -318 294 -102 49 -124 71 -150
145 -14 37 -23 48 -39 48 -12 0 -25 -8 -29 -17z m-760 -4324 c47 -22 76 -54
100 -113 16 -38 11 -66 -11 -66 -11 0 -14 -17 -14 -72 0 -111 -48 -191 -60
-101 -9 65 -20 20 -30 -115 -10 -138 -22 -182 -52 -182 -20 0 -19 15 8 95 20
58 18 75 -16 136 -46 83 -39 139 27 227 l25 33 -36 52 c-34 49 -47 103 -29
120 12 12 43 7 88 -14z m1555 -58 c0 -18 -38 -57 -88 -91 l-22 -15 21 -85 c11
-47 25 -105 31 -131 6 -25 8 -58 4 -75 -7 -28 -8 -28 -22 -9 -55 76 -74 79
-74 11 0 -45 21 -88 34 -68 18 29 26 6 26 -71 0 -94 -15 -132 -44 -108 -12 10
-16 31 -16 77 0 56 -3 65 -22 75 -13 6 -33 21 -46 33 -22 19 -23 26 -17 111 3
49 8 114 11 143 5 51 5 52 -20 52 -14 0 -26 4 -26 9 0 20 96 114 139 136 59
31 131 34 131 6z"/>
<path d="M2733 1848 c5 -40 20 -108 34 -150 13 -42 22 -85 19 -95 -4 -14 6
-25 47 -48 69 -40 67 -40 67 -16 0 47 -142 372 -165 378 -7 2 -8 -20 -2 -69z"/>
<path d="M2496 570 c-5 -14 -10 -148 -13 -297 l-5 -273 188 0 189 1 -50 47
c-53 49 -129 138 -157 183 -14 22 -15 38 -6 112 6 48 8 93 5 101 -3 7 -28 16
-56 20 -57 7 -61 11 -76 80 -10 45 -12 48 -19 26z"/>
<path d="M3004 480 c-12 -5 -24 -13 -28 -18 -3 -5 1 -103 9 -218 8 -115 15
-217 15 -226 0 -15 9 -18 51 -18 l52 0 -6 45 -7 45 34 0 c36 0 193 -26 220
-36 13 -5 16 1 16 35 0 50 -7 54 -153 77 -56 9 -107 18 -113 19 -6 2 -16 58
-23 132 -18 184 -17 183 -67 163z"/>
</g>
</svg>
