<?xml version="1.0" encoding="UTF-8" standalone="no"?>
<svg
   xmlns:dc="http://purl.org/dc/elements/1.1/"
   xmlns:cc="http://creativecommons.org/ns#"
   xmlns:rdf="http://www.w3.org/1999/02/22-rdf-syntax-ns#"
   xmlns:svg="http://www.w3.org/2000/svg"
   xmlns="http://www.w3.org/2000/svg"
   xmlns:sodipodi="http://sodipodi.sourceforge.net/DTD/sodipodi-0.dtd"
   xmlns:inkscape="http://www.inkscape.org/namespaces/inkscape"
   inkscape:version="1.0 (4035a4fb49, 2020-05-01)"
   sodipodi:docname="video2.svg"
   xml:space="preserve"
   style="enable-background:new 0 0 512 512;"
   viewBox="0 0 512 512"
   y="0px"
   x="0px"
   id="Layer_1"
   version="1.1"><metadata
   id="metadata55"><rdf:RDF><cc:Work
       rdf:about=""><dc:format>image/svg+xml</dc:format><dc:type
         rdf:resource="http://purl.org/dc/dcmitype/StillImage" /></cc:Work></rdf:RDF></metadata><defs
   id="defs53">
	
	

	
	
</defs><sodipodi:namedview
   inkscape:current-layer="Layer_1"
   inkscape:window-maximized="0"
   inkscape:window-y="0"
   inkscape:window-x="0"
   inkscape:cy="310.38736"
   inkscape:cx="581.78748"
   inkscape:zoom="0.81054688"
   showgrid="false"
   id="namedview51"
   inkscape:window-height="991"
   inkscape:window-width="1870"
   inkscape:pageshadow="2"
   inkscape:pageopacity="0"
   guidetolerance="10"
   gridtolerance="10"
   objecttolerance="10"
   borderopacity="1"
   bordercolor="#666666"
   pagecolor="#ffffff" />




















<g
   id="g1135"><g
     id="g20">
</g><g
     id="g22">
</g><g
     id="g24">
</g><g
     id="g26">
</g><g
     id="g28">
</g><g
     id="g30">
</g><g
     id="g32">
</g><g
     id="g34">
</g><g
     id="g36">
</g><g
     id="g38">
</g><g
     id="g40">
</g><g
     id="g42">
</g><g
     id="g44">
</g><g
     id="g46">
</g><g
     id="g48">
</g><g
     id="g1087"><g
       transform="matrix(1.367561,0,0,1.367561,0,-13.62365)"
       id="g1070"><path
         style="fill:#f4b2b0;stroke-width:0.735899"
         d="M 287.7499,289.98404 H 9.8168975 v 15.92413 c 0,24.06317 19.5064845,43.56892 43.5689215,43.56892 H 323.39318 c 24.0617,0 43.56892,-19.50648 43.56892,-43.56892 v -15.92413"
         id="path2" /><g
         id="g8"
         transform="matrix(0.73589936,0,0,0.73589936,0,9.7888902)">
	<path
   style="fill:#b3404a"
   d="M 439.455,474.935 H 72.545 C 32.544,474.935 0,442.391 0,402.39 v -21.64 c 0,-7.367 5.973,-13.34 13.34,-13.34 h 377.678 c 7.367,0 13.34,5.974 13.34,13.34 0,7.366 -5.974,13.34 -13.34,13.34 H 26.681 v 8.299 c 0,25.289 20.575,45.864 45.864,45.864 h 366.908 c 25.291,0 45.866,-20.575 45.866,-45.864 V 380.75 c 0,-7.367 5.974,-13.34 13.34,-13.34 7.367,0 13.34,5.974 13.34,13.34 v 21.639 c 10e-4,40.003 -32.543,72.546 -72.544,72.546 z"
   id="path4" />
	<path
   style="fill:#b3404a"
   d="M 439.455,474.935 H 72.545 C 32.544,474.935 0,442.391 0,402.39 V 109.61 C 0,69.609 32.544,37.065 72.545,37.065 h 366.908 c 40.001,0 72.545,32.544 72.545,72.545 v 292.781 c 0.001,40.001 -32.542,72.544 -72.543,72.544 z M 72.545,63.746 c -25.289,0 -45.864,20.575 -45.864,45.864 v 292.781 c 0,25.289 20.575,45.864 45.864,45.864 h 366.908 c 25.289,0 45.864,-20.575 45.864,-45.864 V 109.61 c 0,-25.289 -20.575,-45.864 -45.864,-45.864 z"
   id="path6" />
</g><path
         id="path14"
         d="m 190.86136,253.98288 c -45.47122,0 -82.46488,-36.9944 -82.46488,-82.46488 0,-5.42137 4.39553,-9.8169 9.8169,-9.8169 5.42137,0 9.81689,4.39626 9.81689,9.8169 0,34.64467 28.18495,62.83035 62.83035,62.83035 34.64541,0 62.83036,-28.18495 62.83036,-62.83035 0,-34.64541 -28.18495,-62.83036 -62.83036,-62.83036 -5.4221,0 -9.81689,-4.39626 -9.81689,-9.816889 0,-5.42064 4.39552,-9.8169 9.81689,-9.8169 45.47049,0 82.46489,36.994399 82.46489,82.464879 0,45.47049 -36.99366,82.46415 -82.46415,82.46415 z"
         style="fill:#b1404a;stroke-width:0.735899" /><path
         style="fill:#b3404a;stroke-width:0.735899"
         d="m 85.472503,318.93065 c -5.422106,0 -9.816897,-4.39627 -9.816897,-9.8169 v -38.94159 c 0,-5.42137 4.394791,-9.8169 9.816897,-9.8169 5.422107,0 9.816898,4.39627 9.816898,9.8169 v 38.94159 c 0,5.4221 -4.394791,9.8169 -9.816898,9.8169 z"
         id="path18" /><g
         id="g1053"
         transform="matrix(1.3729712,0,0,1.3729712,-119.55477,-170.03035)"><path
           id="path938"
           d="m 238.00279,229.04918 c -1.1562,0 -2.09356,-0.93723 -2.09356,-2.09356 v -11.61685 c 0,-1.1562 0.93723,-2.09356 2.09356,-2.09356 1.15633,0 2.09356,0.93723 2.09356,2.09356 v 11.61685 c -1.3e-4,1.15633 -0.93736,2.09356 -2.09356,2.09356 z"
           style="fill:#b3404a;stroke-width:0.127601" /><path
           id="path940"
           d="m 226.77144,259.65516 14.91265,-15.32626 h 16.51181 c 2.00644,0 3.01529,2.4223 1.60185,3.84643 l -33.02645,33.28104 -33.02658,-33.28104 c -1.41317,-1.42427 -0.40461,-3.84643 1.60184,-3.84643 h 16.5118 z"
           style="fill:#f4b2b0;stroke-width:0.140586" /><path
           style="fill:#b3404a;stroke-width:0.142134"
           d="m 261.65194,242.50475 c -0.71849,-1.72494 -2.39027,-2.83984 -4.25905,-2.83984 h -16.69365 c -0.62965,0 -1.23217,0.25442 -1.67136,0.7057 l -13.40566,13.77734 -12.13427,-12.47071 v -25.46389 c 0,-1.28787 -1.04398,-2.33199 -2.33199,-2.33199 -1.28803,0 -2.332,1.04397 -2.332,2.33199 v 23.4517 H 193.8517 c -1.86878,0 -3.54057,1.11462 -4.25905,2.83985 -0.71849,1.72522 -0.33232,3.69705 0.98413,5.02373 l 33.39044,33.64754 c 0.43776,0.44119 1.03373,0.68935 1.65514,0.68935 0.62141,0 1.21752,-0.24816 1.65515,-0.68935 l 33.39043,-33.64754 c 1.31631,-1.32683 1.70263,-3.29866 0.984,-5.02388 z M 225.6225,276.22252 193.97322,244.3289 h 15.58756 l 14.39037,14.7892 c 0.43891,0.45127 1.0417,0.70569 1.67135,0.70569 0.62966,0 1.23245,-0.25442 1.67136,-0.70569 l 14.39023,-14.7892 15.58785,4.3e-4 z"
           id="path942" /><path
           style="fill:#b3404a;stroke-width:0.134967"
           d="m 226.17386,245.42413 c -1.22294,0 -2.21441,-0.99134 -2.21441,-2.21441 v -21.09283 c 0,-1.22294 0.99134,-2.21441 2.21441,-2.21441 1.22308,0 2.21441,0.99134 2.21441,2.21441 v 21.09283 c 0,1.22307 -0.99147,2.21441 -2.21441,2.21441 z"
           id="path944" /></g></g><g
       transform="translate(-550.27143,219.46166)"
       id="g1057"><path
         style="fill:#ebafae;stroke-width:0.735899"
         d="M 662.43439,190.78407 V 138.1003 c 0,-4.17034 4.49856,-6.79088 8.12581,-4.73404 l 46.45438,26.34152 c 3.67655,2.0848 3.67655,7.38254 0,9.46661 l -46.45438,26.34225 c -3.62799,2.05758 -8.12581,-0.56296 -8.12581,-4.73257 z"
         id="path10" /><path
         id="path12"
         d="m 667.16029,203.07181 c -8.41722,0 -15.2655,-6.84828 -15.2655,-15.26697 v -52.68377 c 0,-8.41795 6.84828,-15.26697 15.2655,-15.26697 2.61906,0 5.21973,0.68881 7.52015,1.99356 l 46.45439,26.34078 c 4.76936,2.7059 7.73209,7.7917 7.73209,13.27415 0,5.48171 -2.96273,10.56825 -7.73136,13.27268 l -46.45512,26.34225 c -2.30042,1.30475 -4.90109,1.99429 -7.52015,1.99429 z m 4.36756,-60.43868 v 37.66112 l 33.20893,-18.83166 z"
         style="fill:#b1404a;stroke-width:0.735899" /></g></g><g
     id="g948"
     transform="matrix(0.55017878,0,0,0.55017878,400.90327,286.34707)">
</g><g
     id="g950"
     transform="matrix(0.55017878,0,0,0.55017878,400.90327,286.34707)">
</g><g
     id="g952"
     transform="matrix(0.55017878,0,0,0.55017878,400.90327,286.34707)">
</g><g
     id="g954"
     transform="matrix(0.55017878,0,0,0.55017878,400.90327,286.34707)">
</g><g
     id="g956"
     transform="matrix(0.55017878,0,0,0.55017878,400.90327,286.34707)">
</g><g
     id="g958"
     transform="matrix(0.55017878,0,0,0.55017878,400.90327,286.34707)">
</g><g
     id="g960"
     transform="matrix(0.55017878,0,0,0.55017878,400.90327,286.34707)">
</g><g
     id="g962"
     transform="matrix(0.55017878,0,0,0.55017878,400.90327,286.34707)">
</g><g
     id="g964"
     transform="matrix(0.55017878,0,0,0.55017878,400.90327,286.34707)">
</g><g
     id="g966"
     transform="matrix(0.55017878,0,0,0.55017878,400.90327,286.34707)">
</g><g
     id="g968"
     transform="matrix(0.55017878,0,0,0.55017878,400.90327,286.34707)">
</g><g
     id="g970"
     transform="matrix(0.55017878,0,0,0.55017878,400.90327,286.34707)">
</g><g
     id="g972"
     transform="matrix(0.55017878,0,0,0.55017878,400.90327,286.34707)">
</g><g
     id="g974"
     transform="matrix(0.55017878,0,0,0.55017878,400.90327,286.34707)">
</g><g
     id="g976"
     transform="matrix(0.55017878,0,0,0.55017878,400.90327,286.34707)">
</g></g></svg>
